<?xml version="1.0" standalone="no"?>
<!DOCTYPE svg PUBLIC "-//W3C//DTD SVG 20010904//EN"
 "http://www.w3.org/TR/2001/REC-SVG-20010904/DTD/svg10.dtd">
<svg version="1.0" xmlns="http://www.w3.org/2000/svg"
 width="406.000000pt" height="406.000000pt" viewBox="0 0 406.000000 406.000000"
 preserveAspectRatio="xMidYMid meet">
<metadata>
Created by potrace 1.11, written by Peter Selinger 2001-2013
</metadata>
<g transform="translate(0.000000,406.000000) scale(0.100000,-0.100000)"
fill="#000000" stroke="none">
<path d="M131 4028 c-48 -24 -96 -83 -111 -137 -14 -54 -12 -3673 2 -3730 16
-62 78 -125 143 -143 42 -12 338 -14 1885 -13 l1835 0 50 25 c62 31 110 93
119 152 3 23 6 862 5 1863 0 1372 -3 1830 -12 1860 -15 52 -83 120 -133 134
-27 8 -605 11 -1889 10 l-1850 0 -44 -21z"/>
</g>
</svg>
